<?xml version="1.0" encoding="utf-8"?>
<!-- Generator: Adobe Illustrator 24.2.2, SVG Export Plug-In . SVG Version: 6.00 Build 0)  -->
<svg version="1.1" id="Layer_1" xmlns="http://www.w3.org/2000/svg" xmlns:xlink="http://www.w3.org/1999/xlink" x="0px" y="0px"
	 viewBox="0 0 138.77 43.96" style="enable-background:new 0 0 138.77 43.96;" xml:space="preserve">
<style type="text/css">
	.st0{fill:#A7A6A6;}
	.st1{fill:#FFFFFF;stroke:#FFFFFF;stroke-width:0.2;stroke-miterlimit:10;}
	.st2{fill:#FFFFFF;}
	.st3{fill:url(#SVGID_1_);}
	.st4{fill:url(#SVGID_2_);}
	.st5{fill:url(#SVGID_3_);}
	.st6{fill:url(#SVGID_4_);}
	.st7{opacity:0.2;fill:#010101;enable-background:new    ;}
	.st8{opacity:0.12;fill:#010101;enable-background:new    ;}
	.st9{opacity:0.25;fill:#FFFFFF;enable-background:new    ;}
	.st10{fill:#B1B3B6;}
	.st11{fill:url(#SVGID_5_);}
	.st12{fill:url(#SVGID_6_);}
	.st13{fill:url(#SVGID_7_);}
	.st14{fill:url(#SVGID_8_);}
	.st15{fill:#303030;stroke:#FFFFFF;stroke-width:0.2;stroke-miterlimit:10;}
	.st16{fill:#303030;}
	.st17{fill:url(#SVGID_9_);}
	.st18{fill:url(#SVGID_10_);}
	.st19{fill:url(#SVGID_11_);}
	.st20{fill:url(#SVGID_12_);}
	.st21{fill:url(#SVGID_13_);}
	.st22{fill:url(#SVGID_14_);}
	.st23{fill:url(#SVGID_15_);}
	.st24{fill:url(#SVGID_16_);}
	.st25{fill:#10112E;}
</style>
<g>
	<g>
		<g>
			<path class="st10" d="M126.13,1.98H12.64c-0.41,0-0.82,0-1.24,0c-0.35,0-0.69,0.01-1.04,0.01C9.62,2.01,8.86,2.05,8.11,2.17
				C7.35,2.29,6.65,2.49,5.96,2.8C5.29,3.1,4.67,3.5,4.14,3.98C3.6,4.45,3.15,5,2.81,5.6C2.46,6.21,2.23,6.83,2.1,7.5
				c-0.14,0.66-0.18,1.33-0.2,2c-0.01,0.31-0.01,0.61-0.02,0.92c0,0.36,0,0.73,0,1.09v20.93c0,0.37,0,0.73,0,1.09
				c0.01,0.31,0.01,0.61,0.02,0.92c0.02,0.67,0.07,1.34,0.2,2c0.13,0.67,0.35,1.3,0.71,1.9c0.34,0.6,0.79,1.14,1.33,1.61
				c0.53,0.48,1.15,0.88,1.83,1.18c0.69,0.31,1.39,0.51,2.14,0.63c0.75,0.12,1.51,0.16,2.26,0.18c0.35,0.01,0.69,0.01,1.04,0.01
				c0.41,0,0.82,0,1.24,0h113.49c0.41,0,0.82,0,1.22,0c0.34,0,0.7,0,1.04-0.01c0.76-0.02,1.51-0.06,2.26-0.18
				c0.76-0.12,1.46-0.32,2.15-0.63c0.67-0.3,1.29-0.7,1.82-1.18c0.54-0.47,0.98-1.02,1.33-1.61c0.35-0.61,0.57-1.23,0.7-1.9
				c0.14-0.66,0.18-1.33,0.21-2c0-0.31,0-0.61,0-0.92c0.01-0.36,0.01-0.72,0.01-1.09V11.51c0-0.37,0-0.73-0.01-1.09
				c0-0.31,0-0.61,0-0.92c-0.03-0.67-0.07-1.34-0.21-2c-0.13-0.67-0.35-1.29-0.7-1.9c-0.35-0.6-0.8-1.15-1.33-1.62
				c-0.53-0.47-1.15-0.87-1.82-1.18c-0.69-0.31-1.4-0.51-2.15-0.63c-0.74-0.12-1.5-0.16-2.26-0.18c-0.34,0-0.7-0.01-1.04-0.01
				C126.95,1.98,126.54,1.98,126.13,1.98L126.13,1.98z"/>
			<path d="M11.41,41.1c-0.34,0-0.68,0-1.02-0.01c-0.63-0.02-1.38-0.05-2.11-0.16c-0.69-0.11-1.3-0.29-1.87-0.55
				c-0.59-0.26-1.12-0.61-1.58-1.02c-0.47-0.41-0.85-0.87-1.15-1.4c-0.29-0.5-0.49-1.05-0.61-1.66c-0.14-0.67-0.17-1.36-0.19-1.88
				c-0.01-0.21-0.02-0.91-0.02-0.91v-23.1c0,0,0.01-0.69,0.02-0.89C2.9,9,2.93,8.32,3.07,7.66C3.19,7.04,3.39,6.5,3.68,5.99
				C3.98,5.47,4.37,5,4.83,4.6c0.47-0.41,1-0.76,1.58-1.02C6.99,3.31,7.6,3.13,8.28,3.03c0.76-0.12,1.53-0.15,2.12-0.16l1.02-0.01
				h115.94l1.03,0.01c0.58,0.01,1.35,0.04,2.1,0.16c0.68,0.11,1.29,0.28,1.89,0.55c0.58,0.26,1.11,0.61,1.57,1.02
				c0.46,0.41,0.85,0.88,1.15,1.4c0.29,0.51,0.49,1.05,0.6,1.65c0.13,0.63,0.17,1.28,0.2,1.89c0,0.28,0,0.59,0,0.89
				c0.01,0.38,0.01,0.73,0.01,1.09v20.93c0,0.36,0,0.72-0.01,1.08c0,0.33,0,0.62,0,0.93c-0.02,0.59-0.06,1.24-0.19,1.85
				c-0.12,0.61-0.32,1.16-0.61,1.67c-0.3,0.52-0.69,0.99-1.15,1.39c-0.47,0.42-0.99,0.76-1.58,1.02c-0.59,0.26-1.18,0.44-1.88,0.55
				c-0.72,0.12-1.47,0.15-2.11,0.16c-0.33,0.01-0.68,0.01-1.01,0.01l-1.22,0L11.41,41.1z"/>
		</g>
	</g>
	<g id="XMLID_2_">
		<g id="XMLID_3_">
			<path id="XMLID_5_" class="st2" d="M26.6,22.28c-0.03-2.75,2.25-4.09,2.36-4.15c-1.29-1.88-3.29-2.14-3.99-2.16
				c-1.68-0.18-3.31,1-4.16,1c-0.87,0-2.19-0.99-3.61-0.96c-1.83,0.03-3.54,1.09-4.47,2.73c-1.93,3.35-0.49,8.27,1.36,10.98
				c0.93,1.33,2.01,2.81,3.43,2.75c1.39-0.06,1.91-0.88,3.58-0.88c1.66,0,2.14,0.88,3.59,0.85c1.49-0.02,2.43-1.33,3.32-2.67
				c1.07-1.52,1.5-3.02,1.52-3.09C29.49,26.67,26.63,25.58,26.6,22.28z"/>
			<path id="XMLID_4_" class="st2" d="M23.87,14.19c0.75-0.93,1.26-2.2,1.11-3.49c-1.08,0.05-2.43,0.75-3.21,1.66
				c-0.69,0.8-1.3,2.12-1.14,3.36C21.85,15.81,23.09,15.11,23.87,14.19z"/>
		</g>
	</g>
	<g>
		<path class="st2" d="M51.85,29.12h-4.73l-1.14,3.36h-2l4.48-12.42h2.08l4.48,12.42h-2.04L51.85,29.12z M47.61,27.57h3.75
			l-1.85-5.45h-0.05L47.61,27.57z"/>
		<path class="st2" d="M64.71,27.95c0,2.81-1.51,4.62-3.78,4.62c-1.29,0-2.31-0.58-2.85-1.58h-0.04v4.48h-1.86V23.42h1.8v1.51h0.03
			c0.52-0.97,1.62-1.6,2.88-1.6C63.2,23.33,64.71,25.14,64.71,27.95z M62.8,27.95c0-1.83-0.95-3.04-2.39-3.04
			c-1.42,0-2.38,1.23-2.38,3.04c0,1.82,0.96,3.05,2.38,3.05C61.85,30.99,62.8,29.8,62.8,27.95z"/>
		<path class="st2" d="M74.68,27.95c0,2.81-1.51,4.62-3.78,4.62c-1.29,0-2.31-0.58-2.85-1.58h-0.04v4.48h-1.86V23.42h1.8v1.51h0.03
			c0.52-0.97,1.62-1.6,2.88-1.6C73.16,23.33,74.68,25.14,74.68,27.95z M72.77,27.95c0-1.83-0.95-3.04-2.39-3.04
			c-1.42,0-2.38,1.23-2.38,3.04c0,1.82,0.96,3.05,2.38,3.05C71.82,30.99,72.77,29.8,72.77,27.95z"/>
		<path class="st2" d="M81.26,29.01c0.14,1.23,1.33,2.04,2.97,2.04c1.57,0,2.69-0.81,2.69-1.92c0-0.96-0.68-1.54-2.29-1.94
			l-1.61-0.39c-2.28-0.55-3.34-1.62-3.34-3.35c0-2.14,1.87-3.61,4.52-3.61c2.62,0,4.42,1.47,4.48,3.61h-1.88
			c-0.11-1.24-1.14-1.99-2.63-1.99s-2.52,0.76-2.52,1.86c0,0.88,0.65,1.39,2.25,1.79l1.37,0.34c2.55,0.6,3.61,1.63,3.61,3.44
			c0,2.32-1.85,3.78-4.79,3.78c-2.75,0-4.61-1.42-4.73-3.67H81.26z"/>
		<path class="st2" d="M92.9,21.28v2.14h1.72v1.47H92.9v4.99c0,0.78,0.34,1.14,1.1,1.14c0.19,0,0.49-0.03,0.61-0.04v1.46
			c-0.21,0.05-0.62,0.09-1.03,0.09c-1.83,0-2.55-0.69-2.55-2.44v-5.19h-1.32v-1.47h1.32v-2.14H92.9z"/>
		<path class="st2" d="M95.62,27.95c0-2.85,1.68-4.64,4.29-4.64c2.63,0,4.29,1.79,4.29,4.64c0,2.86-1.66,4.64-4.29,4.64
			C97.28,32.59,95.62,30.8,95.62,27.95z M102.31,27.95c0-1.95-0.9-3.11-2.4-3.11s-2.4,1.16-2.4,3.11c0,1.96,0.89,3.11,2.4,3.11
			S102.31,29.91,102.31,27.95z"/>
		<path class="st2" d="M105.74,23.42h1.77v1.54h0.04c0.28-1.02,1.11-1.64,2.18-1.64c0.27,0,0.49,0.04,0.64,0.07v1.74
			c-0.15-0.06-0.47-0.11-0.83-0.11c-1.2,0-1.94,0.81-1.94,2.08v5.37h-1.86V23.42z"/>
		<path class="st2" d="M118.94,29.82c-0.25,1.64-1.85,2.77-3.9,2.77c-2.63,0-4.27-1.76-4.27-4.6c0-2.84,1.64-4.68,4.19-4.68
			c2.5,0,4.08,1.72,4.08,4.47v0.64h-6.39v0.11c0,1.55,0.97,2.56,2.44,2.56c1.03,0,1.84-0.49,2.09-1.27H118.94z M112.65,27.11h4.53
			c-0.04-1.39-0.93-2.3-2.22-2.3C113.68,24.82,112.75,25.75,112.65,27.11z"/>
	</g>
	<g id="XMLID_1_">
		<g>
			<path class="st2" d="M47.38,10.71c1.77,0,2.81,1.09,2.81,2.96c0,1.91-1.03,3-2.81,3h-2.16v-5.97H47.38z M46.15,15.83h1.13
				c1.25,0,1.97-0.78,1.97-2.15c0-1.35-0.73-2.13-1.97-2.13h-1.13V15.83z"/>
			<path class="st2" d="M51.23,14.42c0-1.45,0.81-2.34,2.13-2.34c1.31,0,2.12,0.88,2.12,2.34c0,1.46-0.81,2.34-2.12,2.34
				C52.04,16.76,51.23,15.88,51.23,14.42z M54.56,14.42c0-0.98-0.44-1.55-1.21-1.55c-0.77,0-1.21,0.57-1.21,1.55
				c0,0.98,0.43,1.55,1.21,1.55C54.13,15.97,54.56,15.4,54.56,14.42z"/>
			<path class="st2" d="M61.12,16.68H60.2l-0.93-3.32H59.2l-0.93,3.32h-0.91l-1.24-4.5h0.9l0.81,3.44h0.07l0.93-3.44h0.85l0.93,3.44
				h0.07l0.8-3.44h0.89L61.12,16.68z"/>
			<path class="st2" d="M63.4,12.17h0.86v0.72h0.07c0.22-0.5,0.67-0.8,1.34-0.8c1,0,1.56,0.6,1.56,1.67v2.92h-0.89v-2.69
				c0-0.72-0.31-1.08-0.97-1.08s-1.08,0.44-1.08,1.14v2.63H63.4V12.17z"/>
			<path class="st2" d="M68.64,10.42h0.89v6.26h-0.89V10.42z"/>
			<path class="st2" d="M70.77,14.42c0-1.45,0.81-2.34,2.13-2.34c1.31,0,2.12,0.88,2.12,2.34c0,1.46-0.81,2.34-2.12,2.34
				C71.58,16.76,70.77,15.88,70.77,14.42z M74.1,14.42c0-0.98-0.44-1.55-1.21-1.55c-0.77,0-1.21,0.57-1.21,1.55
				c0,0.98,0.43,1.55,1.21,1.55C73.66,15.97,74.1,15.4,74.1,14.42z"/>
			<path class="st2" d="M75.95,15.4c0-0.81,0.6-1.28,1.67-1.34l1.22-0.07V13.6c0-0.48-0.31-0.74-0.92-0.74
				c-0.5,0-0.84,0.18-0.94,0.5h-0.86c0.09-0.77,0.82-1.27,1.84-1.27c1.13,0,1.77,0.56,1.77,1.51v3.08h-0.86v-0.63h-0.07
				c-0.27,0.45-0.76,0.71-1.35,0.71C76.58,16.75,75.95,16.23,75.95,15.4z M78.85,15.02v-0.38l-1.1,0.07
				c-0.62,0.04-0.9,0.25-0.9,0.65c0,0.41,0.35,0.64,0.83,0.64C78.35,16,78.85,15.58,78.85,15.02z"/>
			<path class="st2" d="M80.9,14.42c0-1.42,0.73-2.32,1.87-2.32c0.62,0,1.14,0.29,1.38,0.79h0.07v-2.47h0.89v6.26h-0.85v-0.71h-0.07
				c-0.27,0.49-0.79,0.79-1.41,0.79C81.62,16.75,80.9,15.85,80.9,14.42z M81.82,14.42c0,0.96,0.45,1.53,1.2,1.53
				c0.75,0,1.21-0.58,1.21-1.53c0-0.94-0.47-1.53-1.21-1.53C82.27,12.9,81.82,13.48,81.82,14.42z"/>
			<path class="st2" d="M88.78,14.42c0-1.45,0.81-2.34,2.13-2.34c1.31,0,2.12,0.88,2.12,2.34c0,1.46-0.81,2.34-2.12,2.34
				C89.59,16.76,88.78,15.88,88.78,14.42z M92.11,14.42c0-0.98-0.44-1.55-1.21-1.55c-0.77,0-1.21,0.57-1.21,1.55
				c0,0.98,0.43,1.55,1.21,1.55C91.68,15.97,92.11,15.4,92.11,14.42z"/>
			<path class="st2" d="M94.22,12.17h0.86v0.72h0.07c0.22-0.5,0.67-0.8,1.34-0.8c1,0,1.56,0.6,1.56,1.67v2.92h-0.89v-2.69
				c0-0.72-0.31-1.08-0.97-1.08s-1.08,0.44-1.08,1.14v2.63h-0.89V12.17z"/>
			<path class="st2" d="M103.07,11.05v1.14h0.98v0.75h-0.98v2.32c0,0.47,0.19,0.68,0.64,0.68c0.14,0,0.21-0.01,0.34-0.02v0.74
				c-0.14,0.02-0.31,0.05-0.48,0.05c-0.99,0-1.38-0.35-1.38-1.22v-2.54h-0.71v-0.75h0.71v-1.14H103.07z"/>
			<path class="st2" d="M105.26,10.42h0.88v2.48h0.07c0.22-0.5,0.69-0.81,1.37-0.81c0.96,0,1.55,0.61,1.55,1.68v2.91h-0.89v-2.69
				c0-0.72-0.33-1.08-0.96-1.08c-0.73,0-1.13,0.46-1.13,1.14v2.63h-0.89V10.42z"/>
			<path class="st2" d="M114.31,15.46c-0.2,0.81-0.92,1.3-1.95,1.3c-1.29,0-2.08-0.88-2.08-2.32c0-1.44,0.81-2.35,2.08-2.35
				c1.25,0,2.01,0.86,2.01,2.27v0.31h-3.18v0.05c0.03,0.79,0.49,1.29,1.2,1.29c0.54,0,0.91-0.19,1.07-0.55H114.31z M111.19,14.01
				h2.27c-0.02-0.71-0.45-1.17-1.11-1.17C111.7,12.84,111.24,13.31,111.19,14.01z"/>
		</g>
	</g>
</g>
</svg>
