<?xml version="1.0" encoding="utf-8"?>
<!-- Generator: Adobe Illustrator 24.2.2, SVG Export Plug-In . SVG Version: 6.00 Build 0)  -->
<svg version="1.1" id="Layer_1" xmlns="http://www.w3.org/2000/svg" xmlns:xlink="http://www.w3.org/1999/xlink" x="0px" y="0px"
	 viewBox="0 0 138.77 43.96" style="enable-background:new 0 0 138.77 43.96;" xml:space="preserve">
<style type="text/css">
	.st0{fill:#A7A6A6;}
	.st1{fill:#FFFFFF;stroke:#FFFFFF;stroke-width:0.2;stroke-miterlimit:10;}
	.st2{fill:#FFFFFF;}
	.st3{fill:url(#SVGID_1_);}
	.st4{fill:url(#SVGID_2_);}
	.st5{fill:url(#SVGID_3_);}
	.st6{fill:url(#SVGID_4_);}
	.st7{opacity:0.2;fill:#010101;enable-background:new    ;}
	.st8{opacity:0.12;fill:#010101;enable-background:new    ;}
	.st9{opacity:0.25;fill:#FFFFFF;enable-background:new    ;}
	.st10{fill:#B1B3B6;}
	.st11{fill:url(#SVGID_5_);}
	.st12{fill:url(#SVGID_6_);}
	.st13{fill:url(#SVGID_7_);}
	.st14{fill:url(#SVGID_8_);}
	.st15{fill:#303030;stroke:#FFFFFF;stroke-width:0.2;stroke-miterlimit:10;}
	.st16{fill:#303030;}
	.st17{fill:url(#SVGID_9_);}
	.st18{fill:url(#SVGID_10_);}
	.st19{fill:url(#SVGID_11_);}
	.st20{fill:url(#SVGID_12_);}
	.st21{fill:url(#SVGID_13_);}
	.st22{fill:url(#SVGID_14_);}
	.st23{fill:url(#SVGID_15_);}
	.st24{fill:url(#SVGID_16_);}
	.st25{fill:#10112E;}
</style>
<g>
	<g>
		<path d="M131.88,41.98h-125c-2.75,0-5-2.25-5-5v-30c0-2.75,2.25-5,5-5h125c2.75,0,5,2.25,5,5v30
			C136.88,39.73,134.63,41.98,131.88,41.98z"/>
	</g>
	<g>
		<g>
			<path class="st0" d="M131.88,2.78c2.32,0,4.2,1.88,4.2,4.2v30c0,2.32-1.88,4.2-4.2,4.2h-125c-2.32,0-4.2-1.88-4.2-4.2v-30
				c0-2.32,1.88-4.2,4.2-4.2H131.88 M131.88,1.98h-125c-2.75,0-5,2.25-5,5v30c0,2.75,2.25,5,5,5h125c2.75,0,5-2.25,5-5v-30
				C136.88,4.23,134.63,1.98,131.88,1.98L131.88,1.98z"/>
		</g>
	</g>
	<g>
		<path class="st1" d="M49.3,12.22c0,0.84-0.25,1.51-0.75,2c-0.56,0.59-1.3,0.89-2.2,0.89c-0.87,0-1.6-0.3-2.21-0.9
			c-0.61-0.6-0.91-1.35-0.91-2.23c0-0.89,0.3-1.63,0.91-2.23c0.61-0.6,1.34-0.9,2.21-0.9c0.43,0,0.84,0.08,1.23,0.25
			c0.39,0.17,0.7,0.39,0.94,0.67l-0.53,0.53c-0.4-0.47-0.94-0.71-1.64-0.71c-0.63,0-1.18,0.22-1.64,0.67
			c-0.46,0.44-0.69,1.02-0.69,1.73s0.23,1.29,0.69,1.73c0.46,0.44,1.01,0.67,1.64,0.67c0.67,0,1.23-0.22,1.68-0.67
			c0.29-0.29,0.46-0.7,0.5-1.22h-2.18v-0.72h2.91C49.29,11.93,49.3,12.08,49.3,12.22z"/>
		<path class="st1" d="M53.91,9.72h-2.73v1.9h2.46v0.72h-2.46v1.9h2.73v0.74h-3.5v-6h3.5V9.72z"/>
		<path class="st1" d="M57.16,14.98h-0.77V9.72h-1.68V8.98h4.12v0.74h-1.68V14.98z"/>
		<path class="st1" d="M61.82,14.98v-6h0.77v6H61.82z"/>
		<path class="st1" d="M66.01,14.98h-0.77V9.72h-1.68V8.98h4.12v0.74h-1.68V14.98z"/>
		<path class="st1" d="M75.49,14.2c-0.59,0.61-1.32,0.91-2.2,0.91c-0.88,0-1.61-0.3-2.2-0.91c-0.59-0.61-0.88-1.35-0.88-2.22
			s0.29-1.62,0.88-2.22c0.59-0.61,1.32-0.91,2.2-0.91c0.87,0,1.6,0.3,2.2,0.91c0.59,0.61,0.89,1.35,0.89,2.22
			C76.38,12.86,76.08,13.6,75.49,14.2z M71.66,13.7c0.44,0.45,0.99,0.67,1.63,0.67c0.64,0,1.19-0.22,1.63-0.67
			c0.44-0.45,0.67-1.02,0.67-1.72s-0.22-1.27-0.67-1.72c-0.44-0.45-0.99-0.67-1.63-0.67c-0.64,0-1.19,0.22-1.63,0.67
			C71.22,10.71,71,11.28,71,11.98S71.22,13.25,71.66,13.7z"/>
		<path class="st1" d="M77.46,14.98v-6h0.94l2.92,4.67h0.03l-0.03-1.16V8.98h0.77v6h-0.8l-3.05-4.89H78.2l0.03,1.16v3.74H77.46z"/>
	</g>
	<path class="st2" d="M70.02,23.73c-2.35,0-4.27,1.79-4.27,4.25c0,2.45,1.92,4.25,4.27,4.25c2.35,0,4.27-1.8,4.27-4.25
		C74.29,25.52,72.37,23.73,70.02,23.73z M70.02,30.56c-1.29,0-2.4-1.06-2.4-2.58c0-1.53,1.11-2.58,2.4-2.58
		c1.29,0,2.4,1.05,2.4,2.58C72.42,29.5,71.31,30.56,70.02,30.56z M60.71,23.73c-2.35,0-4.27,1.79-4.27,4.25
		c0,2.45,1.92,4.25,4.27,4.25c2.35,0,4.27-1.8,4.27-4.25C64.97,25.52,63.06,23.73,60.71,23.73z M60.71,30.56
		c-1.29,0-2.4-1.06-2.4-2.58c0-1.53,1.11-2.58,2.4-2.58c1.29,0,2.4,1.05,2.4,2.58C63.11,29.5,61.99,30.56,60.71,30.56z M49.63,25.04
		v1.8h4.32c-0.13,1.02-0.47,1.76-0.98,2.27c-0.63,0.63-1.61,1.32-3.33,1.32c-2.66,0-4.74-2.14-4.74-4.8s2.08-4.8,4.74-4.8
		c1.43,0,2.48,0.56,3.25,1.29l1.27-1.27c-1.08-1.03-2.51-1.82-4.53-1.82c-3.64,0-6.7,2.96-6.7,6.61c0,3.64,3.06,6.61,6.7,6.61
		c1.97,0,3.45-0.64,4.61-1.85c1.19-1.19,1.56-2.87,1.56-4.22c0-0.42-0.03-0.81-0.1-1.13H49.63z M94.93,26.44
		c-0.35-0.95-1.43-2.71-3.64-2.71c-2.19,0-4.01,1.72-4.01,4.25c0,2.38,1.8,4.25,4.22,4.25c1.95,0,3.08-1.19,3.54-1.88l-1.45-0.97
		c-0.48,0.71-1.14,1.18-2.09,1.18c-0.95,0-1.63-0.43-2.06-1.29l5.69-2.35L94.93,26.44z M89.14,27.85c-0.05-1.64,1.27-2.48,2.22-2.48
		c0.74,0,1.37,0.37,1.58,0.9L89.14,27.85z M84.51,31.98h1.87v-12.5h-1.87V31.98z M81.45,24.68h-0.06c-0.42-0.5-1.22-0.95-2.24-0.95
		c-2.13,0-4.08,1.87-4.08,4.27c0,2.38,1.95,4.24,4.08,4.24c1.01,0,1.82-0.45,2.24-0.97h0.06v0.61c0,1.63-0.87,2.5-2.27,2.5
		c-1.14,0-1.85-0.82-2.14-1.51l-1.63,0.68c0.47,1.13,1.71,2.51,3.77,2.51c2.19,0,4.04-1.29,4.04-4.43v-7.64h-1.77V24.68z
		 M79.31,30.56c-1.29,0-2.37-1.08-2.37-2.56c0-1.5,1.08-2.59,2.37-2.59c1.27,0,2.27,1.1,2.27,2.59
		C81.58,29.48,80.58,30.56,79.31,30.56z M103.69,19.48h-4.47v12.5h1.87v-4.74h2.61c2.07,0,4.1-1.5,4.1-3.88
		S105.76,19.48,103.69,19.48z M103.74,25.5h-2.65v-4.29h2.65c1.4,0,2.19,1.16,2.19,2.14C105.92,24.33,105.13,25.5,103.74,25.5z
		 M115.27,23.71c-1.35,0-2.75,0.6-3.33,1.91l1.66,0.69c0.35-0.69,1.01-0.92,1.7-0.92c0.96,0,1.95,0.58,1.96,1.61v0.13
		c-0.34-0.19-1.06-0.48-1.95-0.48c-1.79,0-3.6,0.98-3.6,2.81c0,1.67,1.46,2.75,3.1,2.75c1.25,0,1.95-0.56,2.38-1.22h0.06v0.97h1.8
		v-4.79C119.06,24.95,117.41,23.71,115.27,23.71z M115.04,30.56c-0.61,0-1.46-0.31-1.46-1.06c0-0.96,1.06-1.33,1.98-1.33
		c0.82,0,1.21,0.18,1.7,0.42C117.12,29.74,116.12,30.56,115.04,30.56z M125.63,23.98l-2.14,5.42h-0.06l-2.22-5.42h-2.01l3.33,7.58
		l-1.9,4.21h1.95l5.13-11.79H125.63z M108.82,31.98h1.87v-12.5h-1.87V31.98z"/>
	<g>
		
			<linearGradient id="SVGID_1_" gradientUnits="userSpaceOnUse" x1="23.6826" y1="35.269" x2="6.9002" y2="18.4866" gradientTransform="matrix(1 0 0 -1 0 45.9574)">
			<stop  offset="0" style="stop-color:#4998D3"/>
			<stop  offset="6.574450e-03" style="stop-color:#4A99D3"/>
			<stop  offset="0.2601" style="stop-color:#42BAEB"/>
			<stop  offset="0.5122" style="stop-color:#41C7F2"/>
			<stop  offset="0.7604" style="stop-color:#56C9E9"/>
			<stop  offset="1" style="stop-color:#5BCAE8"/>
		</linearGradient>
		<path class="st3" d="M12.32,9.52c-0.29,0.31-0.46,0.79-0.46,1.4v22.12c0,0.62,0.17,1.1,0.46,1.4l0.07,0.07l12.39-12.39v-0.15
			v-0.15L12.39,9.44L12.32,9.52z"/>
		
			<linearGradient id="SVGID_2_" gradientUnits="userSpaceOnUse" x1="35.7173" y1="23.9773" x2="11.5204" y2="23.9773" gradientTransform="matrix(1 0 0 -1 0 45.9574)">
			<stop  offset="0" style="stop-color:#FEE000"/>
			<stop  offset="0.4087" style="stop-color:#FEBD11"/>
			<stop  offset="0.7754" style="stop-color:#FAA51A"/>
			<stop  offset="1" style="stop-color:#F99C1C"/>
		</linearGradient>
		<path class="st4" d="M28.91,26.26l-4.13-4.13v-0.15v-0.15l4.13-4.13L29,17.76l4.89,2.78c1.4,0.79,1.4,2.09,0,2.89L29,26.2
			L28.91,26.26z"/>
		
			<linearGradient id="SVGID_3_" gradientUnits="userSpaceOnUse" x1="26.7098" y1="21.6826" x2="3.9516" y2="-1.0757" gradientTransform="matrix(1 0 0 -1 0 45.9574)">
			<stop  offset="0" style="stop-color:#EF4049"/>
			<stop  offset="1" style="stop-color:#C31E63"/>
		</linearGradient>
		<path class="st5" d="M29,26.2l-4.22-4.22L12.32,34.44c0.46,0.49,1.22,0.55,2.08,0.06L29,26.2"/>
		
			<linearGradient id="SVGID_4_" gradientUnits="userSpaceOnUse" x1="9.1802" y1="43.8025" x2="19.3427" y2="33.64" gradientTransform="matrix(1 0 0 -1 0 45.9574)">
			<stop  offset="0" style="stop-color:#32A072"/>
			<stop  offset="0.0685" style="stop-color:#2DA771"/>
			<stop  offset="0.4762" style="stop-color:#4BBA71"/>
			<stop  offset="0.8009" style="stop-color:#5EBD6B"/>
			<stop  offset="1" style="stop-color:#66BE69"/>
		</linearGradient>
		<path class="st6" d="M29,17.76L14.4,9.46c-0.86-0.49-1.62-0.43-2.08,0.06l12.46,12.46L29,17.76z"/>
		<g>
			<path class="st7" d="M28.91,26.11L14.4,34.36c-0.81,0.46-1.54,0.43-2,0.01l0,0l-0.07,0.07l0,0l0.07,0.07l0,0
				c0.47,0.42,1.19,0.45,2-0.01L29,26.2L28.91,26.11z"/>
			<path class="st8" d="M12.32,34.3c-0.29-0.31-0.46-0.79-0.46-1.4v0.15c0,0.62,0.17,1.1,0.46,1.4l0.07-0.07L12.32,34.3z"/>
		</g>
		<path class="st8" d="M33.9,23.28l-4.99,2.83L29,26.2l4.89-2.78c0.7-0.4,1.05-0.92,1.05-1.44l0,0
			C34.89,22.45,34.53,22.92,33.9,23.28z"/>
		<path class="st9" d="M14.4,9.6l19.5,11.08c0.63,0.36,0.99,0.82,1.05,1.3l0,0c0-0.52-0.35-1.05-1.05-1.44L14.4,9.46
			c-1.4-0.79-2.54-0.13-2.54,1.47v0.15C11.86,9.47,13,8.81,14.4,9.6z"/>
	</g>
</g>
</svg>
